<svg width="94" height="67" viewBox="0 0 94 67" fill="none" xmlns="http://www.w3.org/2000/svg">
<path d="M51.3916 30.6143H41.6832V21.9131H51.3916V30.6143ZM51.3916 0.6875H41.6832V9.5791H51.3916V0.6875ZM62.8772 21.8984H53.1688V30.5996H62.8772V21.8984ZM39.9207 11.3369H30.2122V20.1406H39.9207V11.3369ZM51.3916 11.3369H41.6832V20.1406H51.3916V11.3369ZM92.0466 25.9854C89.9316 24.5645 85.0554 24.0518 81.31 24.7549C80.8254 21.2393 78.8572 18.1777 75.2735 15.4238L73.2172 14.0615L71.8513 16.1123C69.1488 20.1846 68.4144 26.8936 71.3079 31.3174C70.0301 32.0059 67.5185 32.9434 64.1991 32.8848H0.352554C-0.925258 40.3262 1.20443 49.9941 6.81505 56.6299C12.2641 63.0606 20.4304 66.3272 31.1082 66.3272C54.2263 66.3272 71.3372 55.707 79.3419 36.415C82.4851 36.4736 89.2707 36.4297 92.7516 29.7939C92.9719 29.4277 93.721 27.8604 94 27.2891L92.0466 25.9854ZM16.9788 21.8984H7.28505V30.5996H16.9935V21.8984H16.9788ZM28.4497 21.8984H18.7413V30.5996H28.4497V21.8984ZM39.9207 21.8984H30.2122V30.5996H39.9207V21.8984ZM28.4497 11.3369H18.7413V20.1406H28.4497V11.3369Z" fill="black"/>
</svg>
