<svg width="100" height="62" viewBox="0 0 100 62" fill="none" xmlns="http://www.w3.org/2000/svg">
<path d="M99.458 1.99997H97.758C95.656 1.99997 93.676 2.97997 92.398 4.64797L74.998 27.402L57.598 4.64797C56.324 2.97997 54.342 1.99997 52.242 1.99997H50.542L72.484 30.692L50.072 60H51.772C53.874 60 55.854 59.02 57.13 57.352L75 33.984L92.87 57.352C94.146 59.02 96.126 60 98.228 60H99.928L77.516 30.692L99.458 1.99997ZM42.578 48.484C37.47 56.246 27.414 60.224 17.8 56.716C9.342 53.63 4 45.222 4 36.218V34H28H50V25.732C50 12.722 40.364 1.33197 27.41 0.113968C12.546 -1.28403 0 10.42 0 25V36.146C0 46.888 6.43 56.874 16.538 60.512C29.744 65.264 43.634 58.172 48.33 46H47.054C45.232 46 43.578 46.962 42.578 48.484ZM4 25C4 13.42 13.42 3.99997 25 3.99997C36.58 3.99997 46 13.42 46 25V30H4V25Z" fill="black"/>
</svg>
