<svg width="61" height="83" viewBox="0 0 61 83" fill="none" xmlns="http://www.w3.org/2000/svg">
<path d="M60.1875 29.1094V3.875C60.1875 3.08764 59.8748 2.33253 59.318 1.77578C58.7613 1.21903 58.0061 0.90625 57.2188 0.90625H3.78128C3.18795 0.906991 2.60845 1.0855 2.11755 1.41875C1.62664 1.75201 1.24686 2.22471 1.02719 2.77588C0.807522 3.32705 0.758046 3.9314 0.885147 4.51095C1.01225 5.09051 1.3101 5.61869 1.74026 6.02734L23.041 26.1406H3.78128C2.99392 26.1406 2.2388 26.4534 1.68205 27.0102C1.12531 27.5669 0.812527 28.322 0.812527 29.1094V54.3438C0.810809 54.747 0.892314 55.1463 1.05194 55.5167C1.21158 55.887 1.4459 56.2204 1.74026 56.4961L28.459 81.7305C29.0139 82.2474 29.7417 82.5386 30.5 82.5469C30.9103 82.5501 31.3161 82.4613 31.6875 82.2871C32.218 82.0608 32.6699 81.6831 32.9867 81.2013C33.3035 80.7194 33.4712 80.1548 33.4688 79.5781V57.3125H57.2188C57.8121 57.3118 58.3916 57.1333 58.8825 56.8C59.3734 56.4667 59.7532 55.994 59.9729 55.4429C60.1925 54.8917 60.242 54.2874 60.1149 53.7078C59.9878 53.1282 59.69 52.6001 59.2598 52.1914L37.959 32.0781H57.2188C58.0061 32.0781 58.7613 31.7653 59.318 31.2086C59.8748 30.6518 60.1875 29.8967 60.1875 29.1094Z" fill="black"/>
</svg>
