<svg width="89" height="89" viewBox="0 0 89 89" fill="none" xmlns="http://www.w3.org/2000/svg">
<path d="M87.3201 40.5339L48.4605 1.67983C47.9284 1.14751 47.2967 0.725231 46.6014 0.437126C45.9061 0.149021 45.1609 0.000732422 44.4082 0.000732422C43.6556 0.000732422 42.9103 0.149021 42.215 0.437126C41.5197 0.725231 40.888 1.14751 40.3559 1.67983L32.2903 9.74545L42.5253 19.9805C43.7324 19.5683 45.031 19.5038 46.273 19.7944C47.515 20.0849 48.6503 20.7188 49.5493 21.6236C50.4483 22.5284 51.0748 23.6677 51.3574 24.9115C51.6399 26.1553 51.5671 27.4535 51.1472 28.658L61.0095 38.5258C62.4686 38.0121 64.0592 38.0105 65.5193 38.5214C66.9794 39.0323 68.222 40.0252 69.0425 41.3366C69.863 42.6479 70.2125 44.1996 70.0334 45.7361C69.8543 47.2727 69.1573 48.7024 68.0572 49.7899C66.9435 50.9104 65.4753 51.6095 63.9034 51.7678C62.3315 51.926 60.7534 51.5336 59.4387 50.6576C58.124 49.7816 57.1542 48.4762 56.695 46.9646C56.2359 45.453 56.3158 43.8288 56.9211 42.3695L47.7263 33.1691V57.3827C49.1239 58.0745 50.2422 59.2245 50.8947 60.6408C51.5473 62.0572 51.6947 63.6544 51.3124 65.1663C50.9301 66.6782 50.0412 68.0134 48.7938 68.9494C47.5465 69.8853 46.016 70.3655 44.4575 70.3098C42.899 70.2542 41.4067 69.666 40.2293 68.6435C39.0518 67.6209 38.2604 66.2257 37.9869 64.6904C37.7135 63.1551 37.9745 61.5724 38.7264 60.2062C39.4784 58.84 40.6758 57.7728 42.1193 57.1824V32.7464C41.2865 32.4052 40.5295 31.9025 39.8919 31.2673C39.2543 30.6321 38.7488 29.877 38.4044 29.0456C38.06 28.2141 37.8836 27.3227 37.8854 26.4227C37.8871 25.5227 38.067 24.632 38.4146 23.8019L28.3298 13.7115L1.68544 40.3559C1.15312 40.8879 0.730847 41.5197 0.442741 42.215C0.154636 42.9103 0.00634766 43.6555 0.00634766 44.4082C0.00634766 45.1608 0.154636 45.9061 0.442741 46.6014C0.730847 47.2967 1.15312 47.9284 1.68544 48.4604L40.5451 87.3201C41.0771 87.8524 41.7089 88.2747 42.4042 88.5628C43.0995 88.8509 43.8447 88.9992 44.5974 88.9992C45.35 88.9992 46.0952 88.8509 46.7905 88.5628C47.4858 88.2747 48.1176 87.8524 48.6496 87.3201L87.3257 48.644C88.3994 47.5687 89.0025 46.1113 89.0025 44.5917C89.0025 43.0722 88.3994 41.6147 87.3257 40.5395" fill="black"/>
</svg>
