<svg width="84" height="84" viewBox="0 0 84 84" fill="none" xmlns="http://www.w3.org/2000/svg">
<path fill-rule="evenodd" clip-rule="evenodd" d="M42 0C18.8063 0 0 19.275 0 43.0688C0 62.1 12.0375 78.225 28.725 83.925C30.825 84.3187 31.5938 82.9875 31.5938 81.8438C31.5938 80.8125 31.5562 78.1125 31.5375 74.5125C19.8562 77.1188 17.3812 68.7375 17.3812 68.7375C15.4687 63.7688 12.7125 62.4375 12.7125 62.4375C8.90625 59.7562 12.9938 59.8125 12.9938 59.8125C17.2125 60.1125 19.425 64.2563 19.425 64.2563C23.175 70.8375 29.25 68.9437 31.65 67.8375C32.025 65.0625 33.1125 63.15 34.3125 62.0813C24.9937 60.9938 15.1875 57.3 15.1875 40.8C15.1875 36.0938 16.8188 32.25 19.5 29.25C19.0688 28.1625 17.625 23.775 19.9125 17.85C19.9125 17.85 23.4375 16.6875 31.4625 22.2562C34.8188 21.3 38.4 20.8312 41.9812 20.8125C45.5437 20.8312 49.1437 21.3 52.5 22.2562C60.525 16.6875 64.0312 17.85 64.0312 17.85C66.3187 23.775 64.875 28.1625 64.4438 29.25C67.125 32.2687 68.7563 36.1125 68.7563 40.8C68.7563 57.3375 58.9312 60.975 49.575 62.0437C51.075 63.375 52.425 66 52.425 70.0125C52.425 75.7687 52.3687 80.4187 52.3687 81.825C52.3687 82.9688 53.1188 84.3187 55.2563 83.8875C71.9813 78.2062 84 62.0813 84 43.0688C84 19.275 65.1937 0 42 0Z" fill="black"/>
</svg>
