<svg width="82" height="84" viewBox="0 0 82 84" fill="none" xmlns="http://www.w3.org/2000/svg">
<path d="M73.2143 0.875H8.78571C3.93527 0.875 0 4.82227 0 9.6875V74.3125C0 79.1777 3.93527 83.125 8.78571 83.125H73.2143C78.0647 83.125 82 79.1777 82 74.3125V9.6875C82 4.82227 78.0647 0.875 73.2143 0.875ZM44.6241 65.0227C44.6241 73.0273 39.9384 76.6809 33.1112 76.6809C26.9429 76.6809 23.3737 73.4863 21.5433 69.6125L27.8214 65.8121C29.0295 67.9602 30.1277 69.7777 32.7817 69.7777C35.3076 69.7777 36.9183 68.7863 36.9183 64.9125V38.6402H44.6241V65.0227ZM62.8545 76.6809C55.6978 76.6809 51.067 73.266 48.8156 68.7863L55.0938 65.1512C56.7411 67.85 58.9009 69.8512 62.6897 69.8512C65.8746 69.8512 67.9246 68.2539 67.9246 66.0324C67.9246 63.3887 65.8379 62.4523 62.3054 60.8918L60.3835 60.0656C54.8192 57.6973 51.1402 54.7047 51.1402 48.4074C51.1402 42.6059 55.5513 38.1996 62.4152 38.1996C67.3205 38.1996 70.8348 39.907 73.3607 44.3867L67.3571 48.2422C66.0393 45.8738 64.6116 44.9375 62.3969 44.9375C60.1455 44.9375 58.7179 46.3695 58.7179 48.2422C58.7179 50.5555 60.1455 51.4918 63.4585 52.9422L65.3804 53.7684C71.933 56.5773 75.6121 59.4598 75.6121 65.9223C75.6121 72.8621 70.1576 76.6809 62.8545 76.6809Z" fill="black"/>
</svg>
