<svg width="67" height="79" viewBox="0 0 67 79" fill="none" xmlns="http://www.w3.org/2000/svg">
<path d="M33.007 19.0248C33.1611 19.102 33.2843 19.2872 33.4691 19.2872C33.6385 19.2872 33.9003 19.2254 33.9157 19.0557C33.9466 18.8397 33.6231 18.7008 33.4229 18.6082C33.1611 18.5002 32.8222 18.4539 32.5758 18.5928C32.5142 18.6237 32.4526 18.7008 32.4834 18.7625C32.5296 18.9631 32.8376 18.9323 33.007 19.0248ZM29.6341 19.2872C29.8189 19.2872 29.9421 19.102 30.0961 19.0248C30.2655 18.9323 30.5736 18.9631 30.6352 18.778C30.666 18.7163 30.6044 18.6391 30.5428 18.6082C30.2963 18.4694 29.9575 18.5157 29.6957 18.6237C29.4954 18.7163 29.172 18.8551 29.2028 19.0711C29.2182 19.2254 29.48 19.3026 29.6341 19.2872ZM63.6874 62.3051C63.1329 61.6879 62.8711 60.5153 62.5785 59.2655C62.3012 58.0157 61.9778 56.6733 60.9613 55.8092C60.7611 55.6395 60.5608 55.4852 60.3452 55.3618C60.145 55.2383 59.9294 55.1303 59.7137 55.0532C61.1307 50.8409 60.5762 46.644 59.1439 42.8483C57.3881 38.2039 54.3231 34.1459 51.982 31.3686C49.3483 28.0512 46.7916 24.9036 46.8378 20.2592C46.9149 13.177 47.6233 0.0154743 35.1633 4.46187e-05C19.3919 -0.0308148 23.3347 15.9543 23.1653 20.861C22.9035 24.4715 22.1796 27.3106 19.6999 30.844C16.789 34.3157 12.6921 39.9166 10.7515 45.7645C9.82736 48.5264 9.39611 51.3346 9.79655 53.9885C8.79544 54.8834 8.04075 56.2567 7.23986 57.1053C6.59298 57.7688 5.65347 58.0157 4.62156 58.386C3.58964 58.7563 2.46531 59.3118 1.77223 60.6233C1.44879 61.225 1.34098 61.8731 1.34098 62.5366C1.34098 63.1383 1.43339 63.7555 1.5258 64.3573C1.71062 65.6071 1.91084 66.7797 1.64901 67.5666C0.848118 69.7885 0.740306 71.3315 1.31017 72.4578C1.89544 73.5842 3.06597 74.078 4.40593 74.3557C7.07044 74.9112 10.6899 74.7723 13.5392 76.2844C16.5887 77.8891 19.6845 78.46 22.1488 77.8891C23.9354 77.4879 25.3986 76.4079 26.1378 74.7723C28.0631 74.7569 30.1885 73.9391 33.5769 73.7539C35.8718 73.5688 38.7519 74.5717 42.0633 74.3866C42.1557 74.7414 42.2789 75.0963 42.4483 75.4203V75.4358C43.7267 78.0125 46.114 79.1852 48.6553 78.9846C51.212 78.784 53.9073 77.2873 56.0943 74.6797C58.189 72.1493 61.639 71.1 63.9338 69.7114C65.0736 69.017 65.9977 68.153 66.0747 66.8877C66.1363 65.6225 65.397 64.2184 63.6874 62.3051ZM33.4537 13.4702C34.9631 10.0448 38.7211 10.1065 40.2305 13.4084C41.2316 15.5995 40.7849 18.1762 39.5682 19.642C39.3218 19.5186 38.6595 19.2409 37.6276 18.886C37.797 18.7008 38.105 18.4694 38.2282 18.1762C38.9675 16.3555 38.1974 14.0102 36.8267 13.9639C35.7024 13.8868 34.6858 15.6303 35.0093 17.5127C34.3778 17.2041 33.5615 16.9727 33.007 16.8338C32.853 15.7692 32.9608 14.5811 33.4537 13.4702ZM27.1852 11.6957C28.7408 11.6957 30.3887 13.8868 30.1269 16.8647C29.5879 17.019 29.0334 17.2504 28.5559 17.5745C28.7407 16.2012 28.0477 14.4731 27.0774 14.5502C25.7836 14.6582 25.568 17.8213 26.8001 18.886C26.9541 19.0094 27.0928 18.8551 25.8914 19.7346C23.4887 17.4819 24.2742 11.6957 27.1852 11.6957ZM25.0905 21.0616C26.0454 20.3518 27.1852 19.5186 27.2622 19.4414C27.9861 18.7625 29.3414 17.2504 31.5593 17.2504C32.6528 17.2504 33.962 17.6053 35.5483 18.6237C36.5187 19.2563 37.2887 19.3026 39.0291 20.0586C40.3229 20.5987 41.1392 21.5553 40.6463 22.8668C40.2459 23.9623 38.9521 25.0887 37.1501 25.6596C35.4405 26.2151 34.1006 28.1284 31.2666 27.9586C30.666 27.9278 30.1885 27.8043 29.7881 27.6346C28.5559 27.0946 27.9091 26.0299 26.7077 25.3202C25.3832 24.5795 24.6747 23.7155 24.4437 22.9594C24.228 22.2034 24.4437 21.5707 25.0905 21.0616ZM25.5988 72.5967C25.1829 78.0125 18.8374 77.9045 14.0012 75.3741C9.39611 72.9362 3.43562 74.3711 2.21888 71.995C1.84923 71.2698 1.84923 70.0354 2.61932 67.9215V67.8907C2.98897 66.718 2.71173 65.4219 2.52691 64.203C2.34209 62.9995 2.24968 61.8885 2.66553 61.117C3.20459 60.0832 3.97468 59.7129 4.94499 59.3735C6.53138 58.8026 6.7624 58.8489 7.96374 57.8459C8.81084 56.9664 9.42691 55.8555 10.1662 55.0686C10.9517 54.22 11.7064 53.8188 12.8923 54.0039C14.1399 54.1891 15.218 55.0532 16.2653 56.4727L19.2841 61.9657C20.7472 65.0362 25.9222 69.4336 25.5988 72.5967ZM25.3832 68.6004C24.7517 67.5821 23.9046 66.502 23.1653 65.5762C24.2588 65.5762 25.3524 65.2368 25.7374 64.203C26.0916 63.2463 25.7374 61.9039 24.5977 60.361C22.5184 57.5528 18.6988 55.3463 18.6988 55.3463C16.6195 54.0502 15.449 52.461 14.9099 50.7328C14.3709 49.0047 14.4479 47.1377 14.8637 45.3016C15.6646 41.7682 17.7285 38.3274 19.053 36.1672C19.4073 35.9049 19.1762 36.661 17.7131 39.3766C16.4039 41.8608 13.955 47.6006 17.3126 52.0907C17.405 48.8967 18.1597 45.6411 19.4381 42.6014C21.2863 38.3737 25.1829 31.0446 25.491 25.2122C25.6604 25.3356 26.1995 25.7059 26.4459 25.8448C27.1544 26.2614 27.6934 26.8786 28.3865 27.434C30.2963 28.977 32.776 28.8536 34.9169 27.6192C35.8718 27.0791 36.6419 26.462 37.3658 26.2305C38.8905 25.7522 40.1073 24.9036 40.8003 23.9161C41.9863 28.6067 44.7586 35.3803 46.5298 38.6823C47.4693 40.4412 49.3483 44.1598 50.1646 48.6498C50.6729 48.6344 51.2428 48.7116 51.8434 48.8659C53.9689 43.3575 50.0414 37.417 48.2548 35.7661C47.5309 35.0563 47.5001 34.7477 47.8544 34.7631C49.795 36.4913 52.3517 39.9629 53.2758 43.8666C53.707 45.6565 53.784 47.5235 53.3374 49.375C55.8633 50.4243 58.8666 52.137 58.0658 54.7446C57.7269 54.7291 57.5729 54.7446 57.4189 54.7446C57.9117 53.1862 56.8182 52.0289 53.9073 50.7174C50.8885 49.3905 48.3626 49.3905 48.0084 52.6461C46.1448 53.2942 45.1899 54.9143 44.7124 56.8584C44.2812 58.5866 44.1579 60.6696 44.0347 63.0149C43.9577 64.203 43.4803 65.7922 42.9874 67.4895C38.0434 71.0229 31.1742 72.5659 25.3832 68.6004ZM65.0274 66.826C64.8887 69.4182 58.6818 69.8965 55.2934 74.0008C53.2604 76.4233 50.7653 77.7657 48.5783 77.9354C46.3912 78.1051 44.4968 77.1948 43.3879 74.9575C42.664 73.2448 43.0182 71.3932 43.5573 69.3565C44.1271 67.1655 44.9742 64.9127 45.082 63.092C45.2053 60.7467 45.3439 58.6946 45.7289 57.1207C46.1294 55.5315 46.7454 54.4668 47.839 53.8651C47.8852 53.8342 47.9468 53.8188 47.993 53.7879C48.1162 55.8246 49.1173 57.8922 50.8885 58.3397C52.8291 58.8489 55.6169 57.1825 56.8028 55.8246C58.189 55.7784 59.2209 55.6858 60.2836 56.6116C61.8084 57.9231 61.3771 61.2868 62.9173 63.0303C64.5499 64.8202 65.0736 66.0391 65.0274 66.826ZM25.6912 22.944C25.9992 23.2372 26.4151 23.6383 26.9233 24.0395C27.9399 24.8418 29.3568 25.675 31.128 25.675C32.9146 25.675 34.5934 24.7647 36.0258 24.0086C36.7805 23.6075 37.7046 22.9286 38.3053 22.4039C38.9059 21.8793 39.214 21.4319 38.7827 21.3856C38.3515 21.3393 38.3823 21.7868 37.8586 22.1725C37.1809 22.6663 36.3646 23.3143 35.7178 23.6846C34.578 24.3327 32.7144 25.2584 31.1126 25.2584C29.5108 25.2584 28.2325 24.5178 27.2776 23.7618C26.8001 23.376 26.3997 22.9903 26.0916 22.6971C25.8606 22.4811 25.799 21.9873 25.4294 21.9411C25.2137 21.9256 25.1521 22.512 25.6912 22.944Z" fill="black"/>
</svg>
