<svg width="90" height="90" viewBox="0 0 90 90" fill="none" xmlns="http://www.w3.org/2000/svg">
<path d="M42.0529 0.0242229C41.8594 0.0418181 41.2432 0.103402 40.689 0.14739C27.9061 1.29988 15.9325 8.19724 8.34896 18.7984C4.12609 24.6928 1.42522 31.3791 0.404693 38.4611C0.0439883 40.9335 0 41.6636 0 45.0154C0 48.3675 0.0439883 49.0976 0.404693 51.5696C2.85044 68.4701 14.8769 82.6695 31.1877 87.9304C34.1085 88.8716 37.1877 89.514 40.689 89.901C42.0529 90.0506 47.9471 90.0506 49.311 89.901C55.3549 89.2324 60.4751 87.7369 65.5249 85.1591C66.2993 84.7631 66.4485 84.6577 66.3431 84.5696C66.2726 84.5167 62.9737 80.0917 59.0145 74.7427L51.8182 65.0212L42.8006 51.6754C37.8386 44.3381 33.7566 38.3381 33.7214 38.3381C33.6862 38.3291 33.651 44.259 33.6334 51.4991C33.6071 64.1767 33.5982 64.6871 33.4399 64.986C33.2112 65.4172 33.0352 65.5931 32.6657 65.7866C32.3842 65.9276 32.1378 65.9539 30.8094 65.9539H29.2874L28.8827 65.6989C28.6188 65.5316 28.4252 65.3115 28.2933 65.0565L28.1085 64.6605L28.1261 47.0212L28.1525 29.3732L28.4252 29.0301C28.566 28.8453 28.8651 28.6078 29.0763 28.4934C29.4369 28.3175 29.5777 28.2999 31.0997 28.2999C32.8944 28.2999 33.1935 28.3702 33.6598 28.8805C33.7918 29.0213 38.6745 36.3761 44.5163 45.2355C50.3576 54.0945 58.3459 66.1912 62.2699 72.1297L69.396 82.9245L69.7568 82.6871C72.9503 80.6107 76.3286 77.6546 79.0027 74.5755C84.6949 68.0389 88.3635 60.0682 89.5954 51.5696C89.9561 49.0976 90 48.3675 90 45.0154C90 41.6636 89.9561 40.9335 89.5954 38.4611C87.1496 21.5609 75.123 7.36147 58.8124 2.10047C55.9354 1.16792 52.8739 0.52569 49.443 0.138592C48.5981 0.050616 42.783 -0.0461584 42.0529 0.0242229ZM60.4751 27.2442C60.8974 27.4553 61.2405 27.86 61.3635 28.2823C61.434 28.511 61.4516 33.4025 61.434 44.4259L61.4078 60.2441L58.6189 55.9684L55.821 51.693V40.1944C55.821 32.7603 55.8562 28.5814 55.9091 28.3791C56.0497 27.8864 56.3576 27.4993 56.7799 27.2706C57.1406 27.0858 57.2726 27.0682 58.6541 27.0682C59.9561 27.0682 60.1849 27.0858 60.4751 27.2442Z" fill="black"/>
</svg>
