<svg width="72" height="82" viewBox="0 0 72 82" fill="none" xmlns="http://www.w3.org/2000/svg">
<path d="M35.9999 0L0.483643 20.5V61.5L35.9999 82L71.5161 61.5V20.5L35.9999 0ZM56.4999 56.6825C56.4999 59.0913 54.2927 61.09 51.2758 61.09C49.1199 61.09 46.6599 60.2188 45.1224 58.3225L24.6224 33.9241V56.6791C24.6224 59.1425 22.6749 61.0866 20.2696 61.0866H20.0099C17.5465 61.0866 15.6024 59.0366 15.6024 56.6791V25.3175C15.6024 22.9088 17.7549 20.91 20.7274 20.91C22.9346 20.91 25.4424 21.7812 26.9799 23.6775L47.3774 48.0759V25.3175C47.3774 22.8541 49.4274 20.91 51.7849 20.91H52.0411C54.5011 20.91 56.4486 22.96 56.4486 25.3175V56.6825H56.4999Z" fill="#DDDDDD"/>
</svg>
