<svg width="120" height="74" viewBox="0 0 120 74" fill="none" xmlns="http://www.w3.org/2000/svg">
<path d="M59.2948 73.8957C58.888 73.8957 58.5085 73.7869 58.1556 73.596L54.5481 71.444C54.0055 71.1447 54.277 71.0355 54.4397 70.9809C55.1721 70.7358 55.3075 70.6816 56.0672 70.2457C56.1486 70.1911 56.257 70.2185 56.3383 70.2728L59.1051 71.9346C59.2135 71.9888 59.3492 71.9888 59.4306 71.9346L70.2535 65.6424C70.3618 65.5878 70.4162 65.4786 70.4162 65.3427V52.7853C70.4162 52.6491 70.3618 52.5399 70.2535 52.4857L59.4306 46.2206C59.3222 46.166 59.1865 46.166 59.1051 46.2206L48.2822 52.4857C48.1738 52.5399 48.1195 52.6762 48.1195 52.7853V65.3427C48.1195 65.4515 48.1738 65.5878 48.2822 65.6424L51.2387 67.3584C52.8392 68.1754 53.8427 67.2221 53.8427 66.2688V53.8749C53.8427 53.7115 53.9785 53.5477 54.1682 53.5477H55.5516C55.6376 53.5489 55.7198 53.5838 55.7806 53.6449C55.8414 53.706 55.876 53.7885 55.8771 53.8749V66.2688C55.8771 68.4205 54.7108 69.6738 52.6765 69.6738C52.0525 69.6738 51.5642 69.6738 50.1812 68.9927L47.3331 67.3584C46.9864 67.1561 46.6987 66.8659 46.4988 66.5169C46.2989 66.1679 46.1937 65.7724 46.1938 65.3698V52.8125C46.1937 52.4099 46.2989 52.0143 46.4988 51.6653C46.6987 51.3163 46.9864 51.0262 47.3331 50.8239L58.1556 44.5316C58.834 44.1503 59.7561 44.1503 60.4341 44.5316L71.257 50.8239C71.6037 51.0262 71.8914 51.3163 72.0913 51.6653C72.2912 52.0143 72.3964 52.4099 72.3962 52.8125V65.3698C72.3964 65.7724 72.2912 66.1679 72.0913 66.5169C71.8914 66.8659 71.6037 67.1561 71.257 67.3584L60.4341 73.6506C60.1086 73.7869 59.7017 73.8957 59.2948 73.8957Z" fill="#F1F1F1"/>
<path d="M62.6581 65.2608C57.9113 65.2608 56.9348 63.0813 56.9348 61.2294C56.9348 61.0656 57.0706 60.9022 57.2603 60.9022H58.6707C58.8334 60.9022 58.9692 61.0114 58.9692 61.1748C59.1863 62.6183 59.8099 63.3268 62.6854 63.3268C64.9639 63.3268 65.9404 62.8091 65.9404 61.5833C65.9404 60.8751 65.6689 60.3575 62.1158 60.0036C59.1589 59.7039 57.3147 59.0499 57.3147 56.6803C57.3147 54.4737 59.1589 53.1666 62.2512 53.1666C65.7233 53.1666 67.4322 54.3649 67.6493 56.98C67.6493 57.0617 67.6219 57.1434 67.5679 57.2251C67.5136 57.2797 67.4322 57.3339 67.3508 57.3339H65.9131C65.8435 57.3315 65.7766 57.3062 65.7228 57.2619C65.6689 57.2176 65.631 57.1568 65.6149 57.0888C65.2894 55.5908 64.4483 55.1002 62.2242 55.1002C59.7286 55.1002 59.4304 55.9722 59.4304 56.6257C59.4304 57.4156 59.7829 57.6611 63.1463 58.0967C66.4827 58.5326 68.0562 59.1591 68.0562 61.5016C68.0562 63.8987 66.0758 65.2608 62.6581 65.2608ZM78.2821 52.077C78.2821 53.2208 77.3326 54.1744 76.1933 54.1744C75.0541 54.1744 74.1049 53.2483 74.1049 52.077C74.1049 50.8783 75.0814 49.9792 76.1933 49.9792C77.3056 49.9792 78.2821 50.9054 78.2821 52.077ZM74.4304 52.077C74.4304 53.0574 75.2168 53.8473 76.1663 53.8473C77.1428 53.8473 77.9296 53.0303 77.9296 52.077C77.9296 51.0963 77.1428 50.3335 76.1663 50.3335C75.2442 50.3335 74.4304 51.0963 74.4304 52.077ZM75.4069 50.9054H76.2207C76.4918 50.9054 77.0344 50.9054 77.0344 51.5319C77.0344 51.9678 76.7629 52.0495 76.6002 52.1041C76.9257 52.1312 76.9531 52.3492 76.9801 52.6489C77.0071 52.8394 77.0344 53.1666 77.0884 53.2754H76.6002C76.6002 53.1666 76.5188 52.5672 76.5188 52.5397C76.4918 52.4038 76.4374 52.3492 76.2747 52.3492H75.8678V53.3025H75.4069V50.9054ZM75.8408 51.9407H76.1933C76.4918 51.9407 76.5462 51.7228 76.5462 51.6139C76.5462 51.2868 76.3291 51.2868 76.1933 51.2868H75.8138V51.9407H75.8408Z" fill="#F1F1F1"/>
<path fill-rule="evenodd" clip-rule="evenodd" d="M25.7415 24.7826C25.7397 24.5382 25.6736 24.2986 25.5497 24.0882C25.4259 23.8777 25.2489 23.7039 25.0365 23.5843L13.5619 16.9103C13.3722 16.8011 13.155 16.7469 12.9383 16.7194H12.8295C12.6128 16.7194 12.3957 16.8011 12.2059 16.9103L0.705039 23.5572C0.489465 23.6799 0.310452 23.8582 0.186508 24.0736C0.0625648 24.2891 -0.00181036 24.5338 3.87408e-05 24.7826L0.0270387 42.6518C0.0270387 42.8969 0.162789 43.142 0.379539 43.2512C0.597039 43.3871 0.868164 43.3871 1.05791 43.2512L7.89341 39.3285C8.10577 39.209 8.28285 39.0352 8.40667 38.8247C8.53049 38.6142 8.59664 38.3746 8.59841 38.1302V29.7677C8.59841 29.2771 8.86991 28.814 9.30379 28.569L12.2063 26.88C12.423 26.7441 12.6675 26.6895 12.9113 26.6895C13.1554 26.6895 13.3995 26.7441 13.5897 26.88L16.4922 28.569C16.7046 28.6886 16.8816 28.8625 17.0055 29.073C17.1293 29.2835 17.1954 29.5232 17.1972 29.7677V38.1302C17.1989 38.3746 17.2651 38.6142 17.3889 38.8247C17.5127 39.0352 17.6898 39.209 17.9022 39.3285L24.6837 43.2512C24.7893 43.3177 24.9115 43.353 25.0362 43.353C25.1609 43.353 25.283 43.3177 25.3887 43.2512C25.6062 43.142 25.7412 42.8969 25.7412 42.6518L25.7415 24.7826ZM81.0218 0.185646C80.8047 0.0764645 80.5335 0.0764645 80.3434 0.185646C80.1267 0.321934 79.9909 0.539543 79.9909 0.785012V18.4904C79.9909 18.6538 79.9095 18.8172 79.7468 18.9264C79.6717 18.9666 79.5878 18.9877 79.5027 18.9877C79.4175 18.9877 79.3337 18.9666 79.2585 18.9264L76.3834 17.2646C76.1727 17.1441 75.9343 17.0807 75.6917 17.0807C75.4492 17.0807 75.2108 17.1441 75 17.2646L63.4992 23.9382C63.2867 24.0578 63.1096 24.2316 62.9857 24.4422C62.8618 24.6527 62.7956 24.8924 62.7938 25.1369V38.457C62.7938 38.9472 63.0653 39.4102 63.4992 39.6553L75 46.3289C75.2108 46.4496 75.4492 46.5131 75.6917 46.5131C75.9343 46.5131 76.1727 46.4496 76.3834 46.3289L87.8843 39.6553C88.0967 39.5358 88.2738 39.3619 88.3977 39.1515C88.5215 38.941 88.5878 38.7014 88.5897 38.457V5.25202C88.5914 5.0032 88.527 4.75842 88.403 4.54298C88.279 4.32754 88.0999 4.14926 87.8843 4.02656L81.0218 0.185646ZM79.9639 34.0713C79.9639 34.2076 79.9095 34.3164 79.8012 34.371L75.8682 36.6593C75.7594 36.7135 75.624 36.7135 75.5153 36.6593L71.5823 34.371C71.4739 34.3164 71.4195 34.1805 71.4195 34.0713V29.4951C71.4195 29.3588 71.4739 29.25 71.5823 29.1954L75.5153 26.9075C75.624 26.8529 75.7594 26.8529 75.8682 26.9075L79.8012 29.1954C79.9095 29.25 79.9639 29.3863 79.9639 29.4951V34.0713ZM119.295 29.3863C119.729 29.1412 119.973 28.6781 119.973 28.1876V24.946C119.971 24.7049 119.907 24.4683 119.788 24.2586C119.67 24.0489 119.5 23.8731 119.295 23.7477L107.875 17.1012C107.664 16.9807 107.426 16.9173 107.183 16.9173C106.941 16.9173 106.703 16.9807 106.492 17.1012L94.9909 23.7748C94.7785 23.8944 94.6014 24.0683 94.4776 24.2788C94.3538 24.4893 94.2877 24.729 94.2859 24.9735V38.2936C94.2877 38.538 94.3538 38.7776 94.4777 38.9881C94.6015 39.1986 94.7786 39.3724 94.9909 39.4919L106.41 46.0296C106.845 46.2747 107.36 46.2747 107.767 46.0296L114.684 42.1616C114.901 42.0524 115.036 41.8073 115.036 41.5622C115.036 41.3172 114.901 41.0721 114.684 40.9629L103.128 34.2893C102.912 34.153 102.776 33.9354 102.776 33.6899V29.5226C102.776 29.2779 102.912 29.0324 103.128 28.9236L106.736 26.8533C106.842 26.7866 106.964 26.7512 107.089 26.7512C107.213 26.7512 107.336 26.7866 107.441 26.8533L111.049 28.9236C111.266 29.0599 111.402 29.2775 111.402 29.5226V32.7916C111.402 33.0363 111.537 33.2818 111.754 33.3906C111.86 33.4573 111.982 33.4927 112.107 33.4927C112.232 33.4927 112.354 33.4573 112.46 33.3906L119.295 29.3863Z" fill="#F1F1F1"/>
<path fill-rule="evenodd" clip-rule="evenodd" d="M107.007 28.7601C107.048 28.7335 107.095 28.7192 107.143 28.7192C107.191 28.7192 107.238 28.7335 107.279 28.7601L109.476 30.0402C109.517 30.0659 109.552 30.102 109.576 30.1449C109.599 30.1878 109.612 30.2362 109.611 30.2853V32.8458C109.612 32.8949 109.599 32.9434 109.576 32.9864C109.552 33.0293 109.517 33.0655 109.476 33.0912L107.279 34.3713C107.238 34.3979 107.191 34.4122 107.143 34.4122C107.095 34.4122 107.048 34.3979 107.007 34.3713L104.81 33.0912C104.769 33.0655 104.734 33.0293 104.71 32.9864C104.687 32.9434 104.674 32.8949 104.675 32.8458V30.2856C104.674 30.2365 104.687 30.188 104.71 30.145C104.734 30.102 104.769 30.0659 104.81 30.0402L107.007 28.7601Z" fill="#F1F1F1"/>
<path fill-rule="evenodd" clip-rule="evenodd" d="M43.5087 17.2381C43.7195 17.1176 43.9579 17.0542 44.2004 17.0542C44.443 17.0542 44.6813 17.1176 44.8921 17.2381L56.2842 23.8567C56.7185 24.1022 56.9626 24.5653 56.9626 25.0554V38.2392C56.9603 38.4805 56.8968 38.7171 56.7781 38.9269C56.6594 39.1366 56.4895 39.3125 56.2842 39.438L44.8921 46.057C44.6813 46.1775 44.443 46.2408 44.2004 46.2408C43.9579 46.2408 43.7195 46.1775 43.5087 46.057L32.1162 39.438C31.6824 39.1929 31.4382 38.7298 31.4382 38.2392V25.0283C31.4405 24.7872 31.504 24.5507 31.6226 24.341C31.7413 24.1313 31.9111 23.9555 32.1162 23.83L43.5087 17.2381Z" fill="url(#paint0_linear_72_69)"/>
<path opacity="0.66" d="M56.2299 23.8298L44.8917 17.2108C44.7791 17.1536 44.661 17.108 44.5392 17.0745L31.709 39.111C31.8177 39.2472 31.9531 39.3561 32.0889 39.4377L43.5084 46.0571C43.8609 46.2476 44.2407 46.3022 44.5932 46.1659L56.5824 24.1294C56.4903 24.0028 56.3695 23.9 56.2299 23.8298Z" fill="#4B4B4B"/>
<path d="M44.8644 46.0571L56.2299 39.4377C56.6638 39.1926 56.8535 38.7296 56.8535 38.2394V38.1848L44.5389 17.0745C44.1864 16.9653 43.8065 17.0199 43.481 17.2107L32.1973 23.7477L44.4575 46.193C44.6203 46.1655 44.756 46.1388 44.8644 46.0571Z" fill="url(#paint1_linear_72_69)"/>
<defs>
<linearGradient id="paint0_linear_72_69" x1="31.4356" y1="31.6436" x2="56.9881" y2="31.6436" gradientUnits="userSpaceOnUse">
<stop offset="0.005" stop-color="white"/>
<stop offset="0.194" stop-color="#E8E8E8"/>
<stop offset="0.542" stop-color="#C2C2C2"/>
<stop offset="0.824" stop-color="#ABABAB"/>
<stop offset="1" stop-color="#A3A3A3"/>
</linearGradient>
<linearGradient id="paint1_linear_72_69" x1="31.2586" y1="31.6249" x2="57.6178" y2="31.6249" gradientUnits="userSpaceOnUse">
<stop stop-color="#A3A3A3"/>
<stop offset="0.176" stop-color="#ABABAB"/>
<stop offset="0.458" stop-color="#C2C2C2"/>
<stop offset="0.806" stop-color="#E8E8E8"/>
<stop offset="0.995" stop-color="white"/>
</linearGradient>
</defs>
</svg>
