<svg width="83" height="83" viewBox="0 0 83 83" fill="none" xmlns="http://www.w3.org/2000/svg">
<path d="M49.4888 0.6225L52.6012 1.31417L55.1258 2.21333L57.1663 3.25083L58.7225 4.3575L59.8983 5.53333L60.7629 6.70917L61.3162 7.85042L61.6621 8.88792L61.8004 9.78708L61.8696 10.4787L61.835 10.9283V29.3958L61.6621 31.5746L61.2125 33.4767L60.4862 35.0675L59.5871 36.3817L58.5496 37.4538L57.4083 38.3183L56.1979 38.9754L54.9875 39.4596L53.8462 39.8054L52.8088 40.0475L51.9096 40.1858L51.1833 40.255H30.5371L28.1508 40.4279L26.1104 40.9121L24.3813 41.6729L22.9633 42.6067L21.8221 43.7133L20.8883 44.9237L20.1967 46.1688L19.6779 47.4483L19.3321 48.6587L19.09 49.7654L18.9517 50.6992L18.8825 51.4254V62.0079H11.1704L10.4442 61.9042L9.47583 61.6621L8.36917 61.2471L7.15875 60.6246L5.91375 59.7254L4.66875 58.4804L3.45833 56.8896L2.35167 54.8492L1.38333 52.3246L0.657083 49.2812L0.172917 45.65L0 41.3963L0.2075 37.1771L0.760833 33.5804L1.59083 30.5717L2.6975 28.1162L3.9425 26.145L5.32583 24.6233L6.77833 23.4821L8.23083 22.6521L9.61417 22.0987L10.8592 21.7529L11.9658 21.58L12.7958 21.5454H13.3492L13.5567 21.58H41.7767V18.7096H21.58L21.5454 9.19917L21.4762 7.91958L21.6492 6.74375L22.0296 5.67167L22.6175 4.70333L23.4821 3.80417L24.5542 3.00875L25.8683 2.31708L27.39 1.69458L29.1537 1.17583L31.1596 0.760833L33.3729 0.415L35.8283 0.2075L38.4912 0.0691667L41.3963 0L45.7883 0.172917L49.4888 0.6225ZM27.7013 7.47L26.9058 8.61125L26.6292 10.0292L26.9058 11.4471L27.7013 12.6229L28.8425 13.3837L30.2604 13.695L31.6783 13.3837L32.8196 12.6229L33.615 11.4471L33.8917 10.0292L33.615 8.61125L32.8196 7.47L31.6783 6.70917L30.2604 6.39792L28.8425 6.70917L27.7013 7.47ZM72.9708 21.1304L73.9392 21.3379L75.0458 21.7529L76.2562 22.3754L77.5013 23.3092L78.7462 24.5196L79.9567 26.145L81.0633 28.1854L82.0317 30.71L82.7579 33.7533L83.2421 37.35L83.415 41.6037L83.2075 45.8575L82.6542 49.4542L81.8242 52.4283L80.7175 54.8837L79.4725 56.855L78.0892 58.4112L76.6367 59.5525L75.1842 60.3825L73.8008 60.9358L72.5558 61.2471L71.4492 61.42L70.6192 61.4892L70.0658 61.4546H41.6383V64.2904H61.835L61.8696 73.8354L61.9387 75.0804L61.7658 76.2562L61.3854 77.3283L60.7975 78.3312L59.9329 79.1958L58.8608 80.0258L57.5467 80.7175L56.025 81.3054L54.2612 81.8242L52.2554 82.2738L50.0421 82.585L47.5867 82.8271L44.9237 82.9654L42.0187 83L37.6267 82.8617L33.9263 82.3775L30.8137 81.6858L28.2892 80.8213L26.2488 79.7837L24.6925 78.6425L23.5167 77.4667L22.6521 76.2908L22.0987 75.1496L21.7529 74.1121L21.6146 73.2475L21.5454 72.5558L21.58 72.1062V53.6387L21.7529 51.4254L22.2025 49.5579L22.9287 47.9671L23.8279 46.6529L24.8654 45.5462L26.0067 44.7163L27.2171 44.0246L28.4275 43.5404L29.5688 43.1946L30.6063 42.9871L31.5054 42.8488L32.2317 42.7796L32.6812 42.745H52.8779L55.2642 42.5721L57.3046 42.0879L59.0337 41.3617L60.4517 40.3933L61.5929 39.2867L62.5267 38.0762L63.2183 36.8312L63.7371 35.5863L64.0829 34.3758L64.325 33.2692L64.4633 32.3008L64.5325 31.5746V20.9921H71.7604L72.2446 21.0267L72.9708 21.1304ZM50.5954 70.4117L49.8 71.5529L49.5233 72.9708L49.8 74.3887L50.5954 75.53L51.7367 76.3254L53.1546 76.6021L54.5725 76.3254L55.7137 75.53L56.5092 74.3887L56.7858 72.9708L56.5092 71.5529L55.7137 70.4117L54.5725 69.6162L53.1546 69.3396L51.7367 69.6162L50.5954 70.4117Z" fill="black"/>
</svg>
