<svg width="84" height="75" viewBox="0 0 84 75" fill="none" xmlns="http://www.w3.org/2000/svg">
<path d="M81.2 37.4697C81.2 46.748 63.6496 54.2698 42 54.2698C20.3505 54.2698 2.80005 46.748 2.80005 37.4697C2.80005 28.1913 20.3505 20.6697 42 20.6697C63.6496 20.6697 81.2 28.1913 81.2 37.4697Z" stroke="black" stroke-width="4"/>
<path d="M23.3289 71.9377C31.4873 76.3573 46.4601 64.5077 56.7716 45.4714C67.0829 26.4352 68.8284 7.42087 60.6703 3.00163C52.5118 -1.41758 37.539 10.4318 27.2275 29.468C16.916 48.5042 15.1706 67.5188 23.3289 71.9377Z" stroke="black" stroke-width="4"/>
<path d="M60.6705 71.9377C52.512 76.3573 37.5393 64.5077 27.2278 45.4714C16.9163 26.4352 15.1708 7.42087 23.3292 3.00163C31.4875 -1.41758 46.4603 10.4318 56.7717 29.468C67.0836 48.5042 68.8285 67.5188 60.6705 71.9377Z" stroke="black" stroke-width="4"/>
<path d="M36.3999 37.4696C36.3999 40.5624 38.9071 43.0696 41.9999 43.0696C45.0927 43.0696 47.5999 40.5624 47.5999 37.4696C47.5999 34.3768 45.0927 31.8696 41.9999 31.8696C38.9071 31.8696 36.3999 34.3768 36.3999 37.4696Z" stroke="black" stroke-width="4"/>
</svg>
