<svg width="77" height="85" viewBox="0 0 77 85" fill="none" xmlns="http://www.w3.org/2000/svg">
<path d="M38.7944 37.8601C34.9847 37.8601 32.7885 41.5942 32.7885 46.2102C32.7512 50.8963 35.022 54.4858 38.7571 54.4858C42.5278 54.4858 44.7275 50.9326 44.7275 46.1003C44.7273 41.5942 42.6021 37.8601 38.7944 37.8601Z" fill="black"/>
<path d="M71.3744 30.4033H69.3336V20.5551C69.3336 20.4932 69.3237 20.4318 69.3156 20.369C69.3124 19.9784 69.1879 19.5944 68.9201 19.29L52.5318 0.570035C52.5269 0.565229 52.5218 0.563214 52.5186 0.558408C52.4211 0.449269 52.3071 0.358423 52.1867 0.279979C52.1508 0.256105 52.115 0.236106 52.0775 0.215023C51.9733 0.158438 51.8627 0.110844 51.7487 0.0765834C51.7179 0.068522 51.6903 0.0558098 51.6594 0.0477484C51.5354 0.0182932 51.4069 0 51.277 0H11.0001C9.16089 0 7.66689 1.49586 7.66689 3.33339V30.4032H5.62627C2.99592 30.4032 0.861816 32.5357 0.861816 35.1676V59.9428C0.861816 62.5722 2.99592 64.7069 5.62627 64.7069H7.66689V81.6668C7.66689 83.5045 9.16089 85 11.0001 85H66.0002C67.8377 85 69.3336 83.5045 69.3336 81.6668V64.7071H71.3744C74.0063 64.7071 76.1382 62.5722 76.1382 59.943V35.1678C76.1384 32.5359 74.0063 30.4033 71.3744 30.4033ZM11.0001 3.33339H49.6101V20.3873C49.6101 21.3086 50.357 22.054 51.2768 22.054H66.0002V30.4039H11.0001V3.33339ZM50.7299 58.439L49.1185 62.7618C45.6047 61.7357 42.6748 60.6722 39.3785 59.2822C38.8317 59.0624 38.2441 58.9517 37.6586 58.9161C32.0917 58.5514 26.8921 54.4483 26.8921 46.3933C26.8921 38.9968 31.5795 33.4294 38.9393 33.4294C46.4852 33.4294 50.6207 39.1428 50.6207 45.8808C50.6207 51.4838 48.0215 55.4363 44.763 56.9018V57.0483C46.6674 57.5969 48.7899 58.0371 50.7299 58.439ZM7.30351 57.378L8.43954 52.7638C9.94176 53.5327 12.2461 54.3009 14.6278 54.3009C17.1896 54.3009 18.5455 53.2405 18.5455 51.6301C18.5455 50.091 17.3734 49.2121 14.4076 48.151C10.3061 46.7221 7.63356 44.4523 7.63356 40.8625C7.63356 36.6515 11.1496 33.4293 16.971 33.4293C19.7544 33.4293 21.8054 34.017 23.2687 34.6742L22.0252 39.1794C21.0369 38.7025 19.2795 38.0068 16.8628 38.0068C14.4445 38.0068 13.2719 39.1042 13.2719 40.3875C13.2719 41.9611 14.6636 42.6581 17.8503 43.8674C22.2078 45.4788 24.2579 47.7467 24.2579 51.2256C24.2579 55.3647 21.071 58.8786 14.2969 58.8786C11.4787 58.877 8.69673 58.1445 7.30351 57.378ZM66.0002 80.7633H11.0001V64.7071H66.0002V80.7633ZM69.6981 58.5116H54.2798V33.8317H59.8853V53.8256H69.6981V58.5116Z" fill="black"/>
</svg>
