<svg width="65" height="75" viewBox="0 0 65 75" fill="none" xmlns="http://www.w3.org/2000/svg">
<path d="M57.588 0.543021C55.4222 0.480534 53.1052 1.72329 50.8066 3.8456C50.2605 4.35072 49.7151 4.9114 49.1734 5.50892C42.8834 12.4528 37.0435 25.3138 35.229 35.1359C35.935 36.6266 36.4895 38.5307 36.8536 39.9845C36.9468 40.3571 37.0298 40.7054 37.0964 41.0041C37.2562 41.7094 37.3421 42.1651 37.3421 42.1651C37.3421 42.1651 37.2868 41.9439 37.0559 41.2447C37.0115 41.1108 36.9604 40.966 36.9027 40.7936C36.8776 40.7227 36.8458 40.6363 36.8073 40.5439C36.3974 39.5506 35.261 37.4552 34.7608 36.5435C34.333 37.8556 33.9573 39.0817 33.6421 40.192C35.0836 42.9378 35.9604 47.6424 35.9604 47.6424C35.9604 47.6424 35.8865 47.3379 35.5239 46.2738C35.2027 45.3329 33.6004 42.4098 33.2201 41.726C32.5703 44.2208 32.3113 45.9063 32.5437 46.3159C32.9951 47.1106 33.4266 48.4791 33.804 49.9945C33.9357 50.5196 34.0585 51.0616 34.1769 51.6036C33.7847 55.1872 33.6926 58.787 33.882 62.3506C34.0789 66.2129 34.5981 70.0256 35.1857 73.7863C35.2478 74.182 35.5971 74.4684 35.9864 74.4299C36.3934 74.3899 36.6926 74.0143 36.6541 73.5908C36.4691 71.541 36.3125 69.4968 36.2119 67.4578L36.3015 68.3722C36.1609 66.5411 36.1219 64.5699 36.1974 62.4709C36.4653 55.0265 38.1134 46.048 41.1548 36.6909C46.2949 22.566 53.4243 11.2303 59.9497 5.81872C54.0015 11.4089 45.9519 29.5031 43.5425 36.2036C40.8444 43.7065 38.9315 50.7462 37.7786 57.4929C39.7677 51.1682 46.1961 48.4515 46.1961 48.4515C46.1961 48.4515 49.3516 44.4031 53.0353 38.6219C50.8286 39.1455 47.2015 40.0427 45.9879 40.574C44.1972 41.3563 43.7159 41.6237 43.7159 41.6237C43.7159 41.6237 49.5164 37.9466 54.4922 36.2819C61.3372 25.0645 68.7947 9.12826 61.2851 2.15822C60.1313 1.08753 58.8875 0.580513 57.588 0.543021ZM6.3199 3.62001C3.0491 3.62001 0.399902 6.37661 0.399902 9.78001V60.6C0.399902 64.0034 3.0491 66.76 6.3199 66.76H31.2573C31.1093 65.374 31.0076 63.9422 30.9336 62.51C30.7412 58.9372 30.8151 55.3167 31.1851 51.7901C31.0963 51.4359 31.0224 51.0969 30.9336 50.7735C30.4304 48.7407 30.0887 48.0494 29.9999 47.88C29.3339 46.725 29.2158 45.3243 30.3554 40.9199C31.3337 37.4318 35.6037 16.191 46.8118 3.62001H6.3199Z" fill="black"/>
</svg>
