<svg width="84" height="56" viewBox="0 0 84 56" fill="none" xmlns="http://www.w3.org/2000/svg">
<path d="M42.0004 0C36.255 0 31.3155 1.5507 27.4382 4.87407C23.5888 8.17354 21.0706 12.9768 19.6737 18.9637C19.3688 20.2703 20.0336 21.6096 21.2588 22.1566C22.4839 22.7037 23.9249 22.3048 24.6942 21.2056C26.4674 18.6726 28.2378 17.1506 29.9388 16.3695C31.5862 15.6131 33.362 15.4598 35.396 16.0046C37.4486 16.5544 39.0375 18.1647 41.5321 20.8777L41.6127 20.9654C43.4931 23.0107 45.787 25.5058 48.9244 27.4416C52.1801 29.4503 56.2314 30.7999 61.6007 30.7999C67.3457 30.7999 72.2855 29.2492 76.1629 25.9259C80.0118 22.6264 82.5301 17.8231 83.9273 11.8362C84.2319 10.5296 83.5672 9.19038 82.3419 8.64332C81.1172 8.09626 79.6758 8.49509 78.9063 9.59426C77.1334 12.1273 75.3632 13.6493 73.6619 14.4304C72.0144 15.1869 70.2387 15.3401 68.2047 14.7953C66.1523 14.2455 64.5631 12.6353 62.0688 9.92219L61.9882 9.8345C60.1077 7.78921 57.8139 5.29413 54.6764 3.35838C51.4208 1.34966 47.3695 0 42.0004 0Z" fill="black"/>
<path d="M22.4003 25.2C16.6549 25.2 11.7154 26.7506 7.8381 30.074C3.98872 33.3735 1.47052 38.1767 0.0735645 44.1638C-0.231312 45.4703 0.433531 46.8093 1.65864 47.3564C2.88375 47.9035 4.32475 47.5048 5.09417 46.4055C6.86728 43.8726 8.63766 42.3506 10.3387 41.5695C11.9861 40.813 13.7618 40.6598 15.7959 41.2046C17.8485 41.7544 19.4374 43.3647 21.932 46.0779L22.0126 46.1653C23.893 48.2104 26.1869 50.7058 29.3243 52.6417C32.58 54.6504 36.6312 56 42.0003 56C47.7457 56 52.6853 54.4494 56.5628 51.1258C60.4117 47.8262 62.93 43.0231 64.3272 37.0362C64.6318 35.7295 63.9671 34.3903 62.7418 33.8432C61.5171 33.2962 60.0757 33.695 59.3062 34.7942C57.5333 37.3273 55.763 38.8492 54.0619 39.6303C52.4145 40.3868 50.6388 40.5401 48.6048 39.9953C46.5522 39.4455 44.9632 37.8352 42.4687 35.1221L42.388 35.0344C40.5077 32.9892 38.2137 30.4941 35.0763 28.5583C31.8207 26.5496 27.7695 25.2 22.4003 25.2Z" fill="black"/>
</svg>
