<svg width="82" height="82" viewBox="0 0 82 82" fill="none" xmlns="http://www.w3.org/2000/svg">
<path d="M73.9913 0H8.00867C3.5875 0 0 3.5875 0 8.00867V73.9913C0 78.4125 3.5875 82 8.00867 82H73.9913C78.4125 82 82 78.4125 82 73.9913V8.00867C82 3.5875 78.4125 0 73.9913 0ZM47.5668 45.4963H37.2827V74.7908H29.1339V45.4963H18.8976V38.9158H47.5668V45.4963ZM74.1348 69.5975C72.5393 72.4504 69.6077 74.0563 66.4883 74.7225C62.8667 75.4947 59.0161 75.4537 55.3842 74.7738C53.6041 74.4389 52.0632 73.9401 50.7614 73.2704V65.2515C52.2169 66.4713 53.7954 67.3869 55.5003 67.9951C57.2052 68.6067 58.9272 68.9108 60.6629 68.9108C62.2004 68.9108 63.9122 68.7194 65.2378 67.8721C66.1467 67.2913 66.7548 66.3756 66.7548 65.2788C66.7548 63.7858 65.6752 62.6582 64.5101 61.8724C62.8052 60.7244 60.8474 59.9762 58.958 59.1903C56.1495 58.0218 54.0585 56.5937 52.6782 54.9058C50.2797 51.9709 49.8867 47.2833 51.7386 43.9691C53.3205 41.1401 56.2349 39.4728 59.3099 38.7313C62.6617 37.925 66.3004 37.925 69.7 38.4546C71.1452 38.6801 72.4778 39.0252 73.6975 39.4933V46.986C73.0962 46.5692 72.4402 46.2002 71.7295 45.8858C70.3287 45.2606 68.8151 44.8369 67.2947 44.6319C65.7742 44.4269 64.1718 44.3927 62.6719 44.7447C61.4898 45.018 60.2461 45.5681 59.5628 46.6238C59.2792 47.068 59.1357 47.5634 59.1357 48.1135C59.1357 48.7148 59.2928 49.2547 59.6106 49.7296C60.4135 50.9357 61.828 51.7113 63.0956 52.3365C65.3232 53.4298 67.6603 54.2498 69.7991 55.5174C71.8764 56.744 73.7214 58.4523 74.6234 60.7278C75.0573 61.8212 75.276 63.0956 75.276 64.5477C75.2726 66.5533 74.8933 68.2377 74.1348 69.5975Z" fill="black"/>
</svg>
